<svg xmlns="http://www.w3.org/2000/svg" fill-rule="evenodd" image-rendering="optimizeQuality" shape-rendering="geometricPrecision" viewBox="0 0 4000 4000" xmlns:v="https://vecta.io/nano"><path d="M1810 150a1870 1870 0 01 1960 2390 1850 1850 0 01-3200 650A1860 1860 0 01 1810 150Z" fill="#fdfdfd"/><path d="M1880 720c390-30 690 120 890 470 150 340 110 670-120 970a880 880 0 01-1060 190 880 880 0 01-440-980c110-370 350-580 730-650Z" fill="#0c0c0c"/><path d="M1890 800c120-10 240 0 370 40v80c0 20 20 40 40 50-50 30-70 80-50 140-80 10-100 60-80 140a180 180 0 00 60 40l180 10 60 60a690 690 0 00 150-20c-50 20-80 60-80 120-120-20-180 40-170 160a380 380 0 00 10 110 640 640 0 00 110 80l20 170c10 20 30 20 60 10a740 740 0 00 0-210 790 790 0 00-120-90c-10-60-10-100 20-150a460 460 0 00 120-20c20-20 30-50 30-70 90-50 100-120 40-190-60-10-110 0-150 20-40-20-60-40-80-70l-180-10c60-30 80-80 80-140 50-50 60-110 20-160 0-20 10-20 30-10 360 240 480 570 340 1000a800 800 0 01-860 470c-340-80-550-290-640-620a2400 2400 0 01 0-310c10-60 30-120 70-160a2140 2140 0 00 20 180 820 820 0 00 100 70v50a90 90 0 00-30 40c-10 50-10 100 10 160l190 90 10 170c30 40 40 80 40 140 120 110 200 80 240-70 60-50 90-100 90-170l110-120c40-140-10-200-150-180 0-40-20-70-40-90-60 0-90-30-100-80l-20-30a460 460 0 00-120-20c-50-40-70-80-40-140 100-30 180-90 260-160a300 300 0 00 0-110c-20-30-40-40-70-30l-20-90c-30-10-50 0-60 20-20 70 10 120 80 160-80 70-160 120-250 150l-40 40c-10 50-10 100 10 150l100 90 100 10c0 60 40 100 120 110 0 40 10 70 50 90l120 10a250 250 0 01-10 70l-100 100c-20 30-30 70-30 110-50 40-80 90-90 150h-50c-10-50-20-100-50-130l-10-180-30-40a4720 4720 0 00-160-60c-20-50-10-100 20-130a300 300 0 00 0-110 560 560 0 00-110-90l-10-150a260 260 0 00-50-70c130-210 320-340 570-380Z" fill="#fafafa"/><path d="m1940 2870 10 10a3250 3250 0 00 10-360c20-30 50-30 80 0a4420 4420 0 00 10 420l10-10c290-100 600-130 920-110a2470 2470 0 01 250 60 72270 72270 0 00-150-1050c-10-30 10-40 40-30a80 80 0 01 30 10 177190 177190 0 01 160 1070v100a1630 1630 0 00-710-80 3480 3480 0 00-610 130 4000 4000 0 00-600-130h-360a850 850 0 00-290 80c-50 20-70 0-60-50a26450 26450 0 01 170-1120c10-30 40-30 60 0l10 30a34690 34690 0 00-150 1040c130-50 270-70 420-60 100-10 200 0 300 10a15720 15720 0 00 350 60c-130-80-270-130-420-150a6210 6210 0 00-580-10 21170 21170 0 01 170-1130c40-20 60-10 80 30a22560 22560 0 00-150 1020c270-30 540 0 800 90 70 30 140 70 200 130Z" fill="#0b0b0b"/><path d="M2690 2730c-50-10-100 0-140 20a980 980 0 00-310 90c-60 20-80 0-70-50 130-80 270-120 430-140h460a25290 25290 0 00-150-1030c10-30 40-40 70-20a107240 107240 0 01 160 1010v120h-450Z" fill="#0a0a0a"/><path d="m2040 2520 20 410-10 10a4420 4420 0 01-10-420Z" fill="#c4c4c4"/><path d="M1960 2520a3250 3250 0 01-10 360l-10-10 20-350Z" fill="#afafaf"/><path d="m2690 2730-140 20c40-20 90-30 140-20Z" fill="#aaa"/></svg>